{
	"asset":{
		"generator":"Khronos glTF Blender I/O v3.6.27",
		"version":"2.0"
	},
	"scene":0,
	"scenes":[
		{
			"name":"Scene",
			"nodes":[
				0
			]
		}
	],
	"nodes":[
		{
			"mesh":0,
			"name":"Curve.002"
		}
	],
	"materials":[
		{
			"doubleSided":true,
			"name":"Material.001",
			"pbrMetallicRoughness":{
				"baseColorFactor":[
					0.3817439675331116,
					0.3921748995780945,
					0.3792811632156372,
					1
				]
			}
		}
	],
	"meshes":[
		{
			"name":"Curve.002",
			"primitives":[
				{
					"attributes":{
						"POSITION":0,
						"NORMAL":1
					},
					"indices":2,
					"material":0
				}
			]
		}
	],
	"accessors":[
		{
			"bufferView":0,
			"componentType":5126,
			"count":28300,
			"max":[
				0.7714955806732178,
				0.4066963195800781,
				0.016693180426955223
			],
			"min":[
				0.006919764913618565,
				0.013756505213677883,
				-0.016986815258860588
			],
			"type":"VEC3"
		},
		{
			"bufferView":1,
			"componentType":5126,
			"count":28300,
			"type":"VEC3"
		},
		{
			"bufferView":2,
			"componentType":5123,
			"count":169824,
			"type":"SCALAR"
		}
	],
	"bufferViews":[
		{
			"buffer":0,
			"byteLength":339600,
			"byteOffset":0,
			"target":34962
		},
		{
			"buffer":0,
			"byteLength":339600,
			"byteOffset":339600,
			"target":34962
		},
		{
			"buffer":0,
			"byteLength":339648,
			"byteOffset":679200,
			"target":34963
		}
	],
	"buffers":[
		{
			"byteLength":1018848,
			"uri":"frozen.bin"
		}
	]
}
